<svg width="100" height="100" viewBox="0 0 100 100" fill="none" xmlns="http://www.w3.org/2000/svg">
<circle cx="50" cy="50" r="50" fill="#0038FF" fill-opacity="0.69"/>
<path d="M47.1486 67H38.9406L28.9086 46.216L25.2126 67H17.0046L22.9566 33.304H31.1646L41.1966 54.184L44.8926 33.304H53.1006L47.1486 67ZM82.8103 44.152C82.4903 46.104 81.7383 47.896 80.5543 49.528C79.3703 51.128 77.7543 52.424 75.7063 53.416C73.6903 54.408 71.3063 54.904 68.5543 54.904H63.4663L61.3063 67H53.0983L59.0503 33.304H72.3463C75.8663 33.304 78.5223 34.088 80.3143 35.656C82.1063 37.192 83.0023 39.288 83.0023 41.944C83.0023 42.744 82.9383 43.48 82.8103 44.152ZM69.0343 48.472C72.1063 48.472 73.9143 47.032 74.4583 44.152C74.5223 43.64 74.5543 43.272 74.5543 43.048C74.5543 42.024 74.2183 41.24 73.5463 40.696C72.9063 40.12 71.9143 39.832 70.5703 39.832H66.1063L64.6183 48.472H69.0343Z" fill="url(#paint0_linear_5_6)"/>
<defs>
<linearGradient id="paint0_linear_5_6" x1="49.5" y1="14" x2="49.5" y2="86" gradientUnits="userSpaceOnUse">
<stop stop-color="#331A29"/>
<stop offset="1" stop-color="#2B2327" stop-opacity="0"/>
</linearGradient>
</defs>
</svg>
